<?xml version="1.0" encoding="utf-8"?>
<!-- Generator: Adobe Illustrator 28.0.0, SVG Export Plug-In . SVG Version: 6.00 Build 0)  -->
<svg version="1.1" id="Layer_1" xmlns="http://www.w3.org/2000/svg" xmlns:xlink="http://www.w3.org/1999/xlink" x="0px" y="0px"
	 viewBox="0 0 500 500" style="enable-background:new 0 0 500 500;" xml:space="preserve">
<style type="text/css">
	.st0{fill:#4A58A7;}
</style>
<path class="st0" d="M32.54,177.09c0,0,7.69,239.17,58.81,162.04s62.92-70.07,62.92-70.07s16.14,5.79,56.5,75.03
	c35.79,61.39,54.43-118.28,59.85-158.84c1-7.47,5.55-39.25,0.24-44.6c-9.76-9.82-31.82,40.23-57.11,131.6
	c-1.14,4.13-5.44,18.27-7.11,14.33c-10.59-25.02-37.61-92.11-59.7-81.37c-19.41,9.45-44.37,61.63-57.25,79.99
	c-3.91,5.58-10.68-18.2-12.32-24.81C65.35,212.07,31.99,86.04,32.54,177.09z"/>
<path class="st0" d="M305.84,163.21c9.22,15.64,38.19,64.8,43.88,74.46c0.62,1.06,0.73,2.32,0.31,3.47l-39.47,107.34
	c-1.95,5.31-1.28,11.38,2.26,15.79c4.67,5.81,13.84,7.98,30.99-15.24c1.28-1.73,2.33-3.61,3.09-5.63
	c4.34-11.42,20.62-54.26,27.11-71.34c1.16-3.04,5.23-3.57,7.13-0.92l43.93,61.08c8.24,11.46,25.87,25.68,39.96,26.56
	c12.5,0.78,12.65-14.44-6.15-37.84l-63.47-81.55c-1.04-1.34-1.15-3.19-0.26-4.64l44.93-73.47c3.24-5.29,3.54-12.06,0.23-17.3
	c-3.72-5.88-11.11-8.76-25.47,8.56c-1.25,1.51-2.36,3.15-3.3,4.87c-5.43,10.01-26.59,49.01-34.84,64.22
	c-1.49,2.75-5.38,2.86-7.04,0.21l-38.06-60.43c-3.63-5.76-8.26-10.86-13.83-14.77c-6.68-4.68-14.44-7.66-15.26,2.97
	C302.14,154.38,303.42,159.11,305.84,163.21z"/>
</svg>
